<svg width="58" height="58" viewBox="0 0 58 58" fill="none" xmlns="http://www.w3.org/2000/svg">
<path d="M10.3571 20.7143V14.4202C10.3571 12.1758 11.9809 10.3572 13.9837 10.3572H18.6429" stroke="#6A6A6A" stroke-width="2" stroke-linecap="round" stroke-linejoin="round"/>
<path d="M47.6429 20.7143V14.4202C47.6429 12.1758 46.0193 10.3572 44.0167 10.3572H39.3571" stroke="#6A6A6A" stroke-width="2" stroke-linecap="round" stroke-linejoin="round"/>
<path d="M10.3571 37.2858V43.5799C10.3571 45.8233 11.9809 47.6429 13.9837 47.6429H18.6429" stroke="#6A6A6A" stroke-width="2" stroke-linecap="round" stroke-linejoin="round"/>
<path d="M47.6429 37.2858V43.5799C47.6429 45.8233 46.0193 47.6429 44.0167 47.6429H39.3571" stroke="#6A6A6A" stroke-width="2" stroke-linecap="round" stroke-linejoin="round"/>
<path d="M17.6072 22.7858V26.9286" stroke="#6A6A6A" stroke-width="2" stroke-linecap="round" stroke-linejoin="round"/>
<path d="M38.3214 22.7858V26.9286" stroke="#6A6A6A" stroke-width="2" stroke-linecap="round" stroke-linejoin="round"/>
<path d="M22.7857 37.2858C24.2992 38.9497 30.9649 40.9671 35.2143 37.2858" stroke="#6A6A6A" stroke-width="2" stroke-linecap="round" stroke-linejoin="round"/>
<path d="M29 22.7858V31.2878C29 31.2878 28.482 33.1429 26.9286 33.1429" stroke="#6A6A6A" stroke-width="2" stroke-linecap="round" stroke-linejoin="round"/>
</svg>
