<svg width="32" height="19" viewBox="0 0 32 19" fill="none" xmlns="http://www.w3.org/2000/svg">
<path d="M1 1H28.921C29.9756 1 30.8307 1.85513 30.8307 2.90975V15.8448C30.8307 16.8995 29.9756 17.7546 28.921 17.7546H9.62339" stroke="white" stroke-width="2" stroke-linecap="round" stroke-linejoin="round"/>
<path d="M2.86435 5.45435H7.79751" stroke="white" stroke-width="2" stroke-linecap="round" stroke-linejoin="round"/>
<path d="M4.88419 10.2249H7.79759" stroke="white" stroke-width="2" stroke-linecap="round" stroke-linejoin="round"/>
<path fill-rule="evenodd" clip-rule="evenodd" d="M18.405 10.9234C18.1235 11.2123 17.7444 11.4025 17.2678 11.4939V11.8667C17.2678 12.024 17.218 12.1507 17.1192 12.2471C17.0204 12.3434 16.8918 12.3919 16.7352 12.3919C16.5773 12.3919 16.4493 12.3434 16.3505 12.2471C16.2517 12.1507 16.2026 12.024 16.2026 11.8667V11.5243C15.6395 11.4535 15.1573 11.2888 14.7564 11.0296C14.6657 10.9737 14.6004 10.9109 14.5625 10.8395C14.5246 10.7686 14.506 10.6748 14.506 10.5579C14.506 10.4057 14.5501 10.2739 14.639 10.1627C14.7272 10.0508 14.8329 9.9949 14.9547 9.9949C15.0156 9.9949 15.0759 10.0055 15.1374 10.0254C15.1977 10.0459 15.2766 10.0838 15.3729 10.1397C15.596 10.2615 15.8042 10.3479 15.9969 10.3982C16.1895 10.4492 16.3946 10.4747 16.6134 10.4747C16.8818 10.4747 17.0863 10.4299 17.2255 10.3411C17.3653 10.2528 17.4349 10.1192 17.4349 9.94145C17.4349 9.83518 17.3933 9.74756 17.3094 9.6792C17.2255 9.61084 17.1217 9.55615 16.9974 9.51575C16.8731 9.47536 16.6917 9.4244 16.4536 9.36349C16.0727 9.26717 15.7613 9.1696 15.5177 9.07016C15.2741 8.97135 15.0634 8.81723 14.8857 8.60655C14.708 8.39588 14.6197 8.11312 14.6197 7.75826C14.6197 7.35245 14.7614 7.00008 15.0454 6.70053C15.33 6.40099 15.7054 6.20337 16.1721 6.10704V5.72608C16.1721 5.57445 16.2225 5.44891 16.3238 5.34948C16.4257 5.25067 16.5525 5.20157 16.7041 5.20157C16.8619 5.20157 16.99 5.24942 17.0888 5.34575C17.1876 5.4427 17.2373 5.56948 17.2373 5.72608V6.08405C17.658 6.14992 18.0694 6.30964 18.4697 6.56319C18.561 6.62409 18.6256 6.69121 18.6636 6.76517C18.7015 6.8385 18.7207 6.92861 18.7207 7.03488C18.7207 7.18714 18.6754 7.31951 18.584 7.43075C18.4927 7.54261 18.3858 7.59792 18.264 7.59792C18.2031 7.59792 18.1453 7.58798 18.0893 7.56809C18.0334 7.54759 17.9526 7.50968 17.8457 7.45375C17.8103 7.43324 17.732 7.3916 17.6102 7.32821C17.4884 7.26482 17.3572 7.21386 17.218 7.17595C17.0788 7.13804 16.9303 7.11878 16.7731 7.11878C16.5444 7.11878 16.3598 7.16849 16.2175 7.26731C16.0752 7.36612 16.0043 7.49911 16.0043 7.66691C16.0043 7.82911 16.0851 7.95091 16.2479 8.0317C16.4101 8.11312 16.6662 8.19453 17.0167 8.27532C17.3914 8.3617 17.6997 8.45305 17.9408 8.54938C18.1819 8.64571 18.3901 8.80045 18.5647 9.01361C18.74 9.22677 18.8276 9.51327 18.8276 9.87309C18.8276 10.2845 18.6865 10.6344 18.405 10.9234ZM16.6668 3.41052C14.3307 3.41052 12.4197 5.32151 12.4197 7.65759V9.93586C12.4197 12.2719 14.3307 14.1829 16.6668 14.1829C19.0023 14.1829 20.9132 12.2719 20.9132 9.93586V7.65759C20.9132 5.32151 19.0023 3.41052 16.6668 3.41052Z" fill="white"/>
</svg>
