<svg width="27" height="24" viewBox="0 0 27 24" fill="none" xmlns="http://www.w3.org/2000/svg">
<path fill-rule="evenodd" clip-rule="evenodd" d="M20.6857 15.798V20.0829C20.6857 21.3865 21.7378 22.4551 23.0349 22.4841C24.3319 22.4551 25.384 21.3865 25.384 20.0829V15.798H20.6857Z" stroke="white" stroke-width="2" stroke-linecap="round" stroke-linejoin="round"/>
<path fill-rule="evenodd" clip-rule="evenodd" d="M23.035 22.4841C23.017 22.4846 22.9995 22.4856 22.9815 22.4856H23.0885C23.0705 22.4856 23.053 22.4846 23.035 22.4841Z" stroke="white" stroke-width="2" stroke-linecap="round" stroke-linejoin="round"/>
<path fill-rule="evenodd" clip-rule="evenodd" d="M20.6857 20.0827V12.3699H20.6852V1.92567C20.3868 2.20457 20.0439 2.43949 19.4686 2.43949C18.0407 2.43949 18.0407 1 16.6132 1C15.1862 1 15.1862 2.43949 13.7592 2.43949C12.3337 2.43949 12.3337 1 10.9082 1C9.48171 1 9.48171 2.43949 8.05522 2.43949C6.62923 2.43949 6.62923 1 5.20324 1C3.77725 1 3.77725 2.43949 2.35126 2.43949C2.13784 2.43949 1.9594 2.4045 1.79996 2.34952V20.0827C1.79996 21.4042 2.88157 22.4853 4.2031 22.4853H16.4412H17.9942H20.6852H22.9814C22.9994 22.4853 23.0169 22.4843 23.0349 22.4838C21.7378 22.4553 20.6857 21.3862 20.6857 20.0827Z" stroke="white" stroke-width="2" stroke-linecap="round" stroke-linejoin="round"/>
<path d="M6.17834 8.91345H16.3412" stroke="white" stroke-width="2" stroke-linecap="round" stroke-linejoin="round"/>
<path d="M6.17834 12.7023H16.3412" stroke="white" stroke-width="2" stroke-linecap="round" stroke-linejoin="round"/>
<path d="M6.17834 16.4911H16.3412" stroke="white" stroke-width="2" stroke-linecap="round" stroke-linejoin="round"/>
</svg>
