<svg width="19" height="19" viewBox="0 0 19 19" fill="none" xmlns="http://www.w3.org/2000/svg">
<mask id="mask0_72_1107" style="mask-type:alpha" maskUnits="userSpaceOnUse" x="0" y="0" width="19" height="19">
<path fill-rule="evenodd" clip-rule="evenodd" d="M0 0H18.052V18.055H0V0Z" fill="white"/>
</mask>
<g mask="url(#mask0_72_1107)">
<path fill-rule="evenodd" clip-rule="evenodd" d="M11.8474 7.33339C11.8474 4.83739 9.82639 2.82039 7.33339 2.82039C4.83739 2.82039 2.82139 4.84139 2.82139 7.33339C2.82139 9.83039 4.84139 11.8474 7.33339 11.8474C9.83039 11.8474 11.8474 9.82639 11.8474 7.33339ZM17.8034 16.8094L16.8054 17.8074C16.4774 18.1384 15.9414 18.1384 15.6104 17.8074L12.0944 14.2904C11.9364 14.1324 11.8474 13.9174 11.8474 13.6904V13.1164C10.6034 14.0904 9.03739 14.6684 7.33339 14.6684C3.28339 14.6684 -0.000610352 11.3864 -0.000610352 7.33339C-0.000610352 3.28239 3.28339 -0.000610352 7.33339 -0.000610352C11.3864 -0.000610352 14.6684 3.28239 14.6684 7.33339C14.6684 9.03739 14.0904 10.6034 13.1174 11.8474H13.6914C13.9174 11.8474 14.1324 11.9364 14.2904 12.0944L17.8074 15.6094C18.1344 15.9414 18.1344 16.4774 17.8034 16.8094Z" fill="#B8B8B8"/>
</g>
</svg>
