<svg width="19" height="19" viewBox="0 0 19 19" fill="none" xmlns="http://www.w3.org/2000/svg">
<path d="M13.7075 13.7075C12.4967 14.6305 11.0223 15.1418 9.50001 15.1667C4.54168 15.1667 1.70834 9.5 1.70834 9.5C2.58943 7.85801 3.81148 6.42343 5.29251 5.2925M8.01251 4.00333C8.50008 3.8892 8.99926 3.83215 9.50001 3.83333C14.4583 3.83333 17.2917 9.5 17.2917 9.5C16.8617 10.3044 16.3489 11.0617 15.7617 11.7596M11.0017 11.0017C10.8071 11.2104 10.5725 11.3779 10.3119 11.494C10.0512 11.6102 9.76982 11.6726 9.48449 11.6777C9.19917 11.6827 8.91575 11.6302 8.65115 11.5233C8.38655 11.4165 8.14619 11.2574 7.9444 11.0556C7.74262 10.8538 7.58354 10.6135 7.47666 10.3489C7.36979 10.0843 7.3173 9.80084 7.32233 9.51552C7.32737 9.23019 7.38982 8.9488 7.50596 8.68814C7.62211 8.42747 7.78956 8.19287 7.99834 7.99833" stroke="white" stroke-width="2" stroke-linecap="round" stroke-linejoin="round"/>
<path d="M1.70834 1.70831L17.2917 17.2916" stroke="white" stroke-width="2" stroke-linecap="round" stroke-linejoin="round"/>
</svg>
