<svg width="18" height="24" viewBox="0 0 18 24" fill="none" xmlns="http://www.w3.org/2000/svg">
<path fill-rule="evenodd" clip-rule="evenodd" d="M3.22547 1H14.4865C15.7152 1 16.7115 1.99632 16.7115 3.22547V19.949C16.7115 21.1782 15.7152 22.1745 14.4865 22.1745H3.22547C1.99632 22.1745 1 21.1782 1 19.949V3.22547C1 1.99632 1.99632 1 3.22547 1Z" stroke="white" stroke-width="2" stroke-linecap="round" stroke-linejoin="round"/>
<path fill-rule="evenodd" clip-rule="evenodd" d="M10.9404 11.4917C10.6027 11.8383 10.1481 12.0664 9.5765 12.1755V12.6228C9.5765 12.8116 9.51777 12.9636 9.39873 13.079C9.28022 13.1944 9.12658 13.2526 8.93833 13.2526C8.74955 13.2526 8.5959 13.1944 8.47739 13.079C8.35888 12.9636 8.29963 12.8116 8.29963 12.6228V12.2122C7.62475 12.1272 7.04636 11.9296 6.56603 11.6191C6.45696 11.5525 6.37935 11.4765 6.33373 11.391C6.2881 11.3061 6.26556 11.1939 6.26556 11.0538C6.26556 10.8714 6.31852 10.7135 6.42497 10.5793C6.53142 10.4456 6.65727 10.379 6.80357 10.379C6.87646 10.379 6.94935 10.391 7.02224 10.4151C7.09513 10.4393 7.18952 10.4854 7.30488 10.552C7.57231 10.6978 7.82192 10.8016 8.05317 10.8619C8.28442 10.9227 8.53036 10.9537 8.79202 10.9537C9.11452 10.9537 9.35888 10.9002 9.52616 10.7937C9.69396 10.6873 9.77733 10.5279 9.77733 10.315C9.77733 10.187 9.72699 10.0822 9.62684 9.99984C9.52616 9.91803 9.40188 9.85248 9.25295 9.80424C9.10351 9.75547 8.88641 9.69465 8.60062 9.62123C8.14441 9.50587 7.77053 9.38893 7.47845 9.27042C7.18637 9.15139 6.93414 8.96628 6.72124 8.71405C6.50782 8.4613 6.4019 8.12255 6.4019 7.69676C6.4019 7.21013 6.57232 6.78748 6.91264 6.4288C7.25349 6.0696 7.70341 5.83258 8.26292 5.71669V5.26101C8.26292 5.07852 8.32375 4.92803 8.44541 4.80899C8.56706 4.69048 8.71913 4.63123 8.90162 4.63123C9.0904 4.63123 9.24352 4.68943 9.36203 4.8048C9.48054 4.92016 9.54031 5.07223 9.54031 5.26101V5.68995C10.0448 5.76861 10.5377 5.96053 11.018 6.26467C11.1271 6.33704 11.2052 6.41779 11.2503 6.50589C11.2959 6.59451 11.319 6.70201 11.319 6.82995C11.319 7.01244 11.2645 7.1708 11.1549 7.30452C11.0453 7.43824 10.9179 7.50483 10.7716 7.50483C10.6987 7.50483 10.6289 7.49277 10.5618 7.46865C10.4947 7.44453 10.3977 7.39838 10.2697 7.33179C10.2278 7.30766 10.1334 7.25732 9.98709 7.18129C9.84131 7.10525 9.68452 7.04443 9.51777 6.9988C9.34996 6.95318 9.1722 6.93011 8.98395 6.93011C8.7097 6.93011 8.48788 6.98937 8.31798 7.1084C8.14703 7.22691 8.06209 7.38632 8.06209 7.58716C8.06209 7.78171 8.1591 7.92748 8.35417 8.02502C8.54871 8.12255 8.856 8.21956 9.2755 8.3171C9.72542 8.4204 10.0951 8.53 10.384 8.64536C10.6725 8.76125 10.9221 8.94635 11.1318 9.20173C11.3416 9.4571 11.447 9.8011 11.447 10.2327C11.447 10.7256 11.2781 11.1451 10.9404 11.4917Z" fill="white"/>
<path d="M1.45767 17.541H16.2541" stroke="white" stroke-width="2" stroke-linecap="round" stroke-linejoin="round"/>
</svg>
