<svg width="12" height="15" viewBox="0 0 12 15" fill="none" xmlns="http://www.w3.org/2000/svg">
<mask id="mask0_167_1233" style="mask-type:alpha" maskUnits="userSpaceOnUse" x="0" y="0" width="12" height="15">
<path fill-rule="evenodd" clip-rule="evenodd" d="M0 0.5H12V14.5H0V0.5Z" fill="white"/>
</mask>
<g mask="url(#mask0_167_1233)">
<path fill-rule="evenodd" clip-rule="evenodd" d="M8.57132 12.4223C8.57132 12.6021 8.7157 12.7503 8.89264 12.7503H9.96397C10.1409 12.7503 10.2853 12.6021 10.2853 12.4223V11.3278C10.2853 11.148 10.1409 11.0006 9.96397 11.0006H8.89264C8.7157 11.0006 8.57132 11.148 8.57132 11.3278V12.4223ZM8.57132 8.92207C8.57132 9.10271 8.7157 9.25009 8.89264 9.25009H9.96397C10.1409 9.25009 10.2853 9.10271 10.2853 8.92207V7.8284C10.2853 7.64776 10.1409 7.50038 9.96397 7.50038H8.89264C8.7157 7.50038 8.57132 7.64776 8.57132 7.8284V8.92207ZM5.14265 12.4223C5.14265 12.6021 5.28702 12.7503 5.46397 12.7503H6.53529C6.71224 12.7503 6.85735 12.6021 6.85735 12.4223V11.3278C6.85735 11.148 6.71224 11.0006 6.53529 11.0006H5.46397C5.28702 11.0006 5.14265 11.148 5.14265 11.3278V12.4223ZM5.14265 8.92207C5.14265 9.10271 5.28702 9.25009 5.46397 9.25009H6.53529C6.71224 9.25009 6.85735 9.10271 6.85735 8.92207V7.8284C6.85735 7.64776 6.71224 7.50038 6.53529 7.50038H5.46397C5.28702 7.50038 5.14265 7.64776 5.14265 7.8284V8.92207ZM1.71397 12.4223C1.71397 12.6021 1.85908 12.7503 2.03529 12.7503H3.10661C3.28356 12.7503 3.42868 12.6021 3.42868 12.4223V11.3278C3.42868 11.148 3.28356 11.0006 3.10661 11.0006H2.03529C1.85908 11.0006 1.71397 11.148 1.71397 11.3278V12.4223ZM1.71397 8.92207C1.71397 9.10271 1.85908 9.25009 2.03529 9.25009H3.10661C3.28356 9.25009 3.42868 9.10271 3.42868 8.92207V7.8284C3.42868 7.64776 3.28356 7.50038 3.10661 7.50038H2.03529C1.85908 7.50038 1.71397 7.64776 1.71397 7.8284V8.92207ZM0 5.74991H12V13.1879C12 13.912 11.424 14.5 10.714 14.5H1.28529C0.576012 14.5 0 13.912 0 13.1879V5.74991ZM12 3.56257V4.87543H0V3.56257C0 2.8385 0.576012 2.25047 1.28529 2.25047H2.57132V0.937618C2.57132 0.697268 2.76382 0.5 3 0.5H3.85661C4.09279 0.5 4.28529 0.697268 4.28529 0.937618V2.25047H7.71397V0.937618C7.71397 0.697268 7.90721 0.5 8.14265 0.5H9C9.23544 0.5 9.42868 0.697268 9.42868 0.937618V2.25047H10.714C11.424 2.25047 12 2.8385 12 3.56257Z" fill="#5C6163"/>
</g>
</svg>
