<svg width="170" height="170" viewBox="0 0 170 170" fill="none" xmlns="http://www.w3.org/2000/svg">
<circle opacity="0.1" cx="85" cy="85" r="85" fill="#43B864"/>
<circle opacity="0.3" cx="85" cy="85" r="57" fill="#43B864"/>
<circle cx="85" cy="85" r="36" fill="#43B864"/>
<path d="M94.71 82.29L88.71 76.29C88.6178 76.2 88.5092 76.1287 88.39 76.08C88.266 76.0296 88.1338 76.0025 88 76H80C79.2044 76 78.4413 76.3161 77.8787 76.8787C77.3161 77.4413 77 78.2044 77 79V91C77 91.7956 77.3161 92.5587 77.8787 93.1213C78.4413 93.6839 79.2044 94 80 94H92C92.7956 94 93.5587 93.6839 94.1213 93.1213C94.6839 92.5587 95 91.7956 95 91V83C95.0008 82.8684 94.9755 82.7379 94.9258 82.6161C94.876 82.4943 94.8027 82.3834 94.71 82.29ZM83 78H87V80H83V78ZM89 92H83V89C83 88.7348 83.1054 88.4804 83.2929 88.2929C83.4804 88.1054 83.7348 88 84 88H88C88.2652 88 88.5196 88.1054 88.7071 88.2929C88.8946 88.4804 89 88.7348 89 89V92ZM93 91C93 91.2652 92.8946 91.5196 92.7071 91.7071C92.5196 91.8946 92.2652 92 92 92H91V89C91 88.2044 90.6839 87.4413 90.1213 86.8787C89.5587 86.3161 88.7956 86 88 86H84C83.2044 86 82.4413 86.3161 81.8787 86.8787C81.3161 87.4413 81 88.2044 81 89V92H80C79.7348 92 79.4804 91.8946 79.2929 91.7071C79.1054 91.5196 79 91.2652 79 91V79C79 78.7348 79.1054 78.4804 79.2929 78.2929C79.4804 78.1054 79.7348 78 80 78H81V81C81 81.2652 81.1054 81.5196 81.2929 81.7071C81.4804 81.8946 81.7348 82 82 82H88C88.2652 82 88.5196 81.8946 88.7071 81.7071C88.8946 81.5196 89 81.2652 89 81V79.41L93 83.41V91Z" fill="white"/>
</svg>
