<svg width="19" height="19" viewBox="0 0 19 19" fill="none" xmlns="http://www.w3.org/2000/svg">
<path fill-rule="evenodd" clip-rule="evenodd" d="M11.8475 7.33339C11.8475 4.83739 9.82651 2.82039 7.33351 2.82039C4.83751 2.82039 2.82151 4.84139 2.82151 7.33339C2.82151 9.83039 4.84151 11.8474 7.33351 11.8474C9.83051 11.8474 11.8475 9.82639 11.8475 7.33339ZM17.8035 16.8094L16.8055 17.8074C16.4775 18.1384 15.9415 18.1384 15.6105 17.8074L12.0945 14.2904C11.9365 14.1324 11.8475 13.9174 11.8475 13.6904V13.1164C10.6035 14.0904 9.03751 14.6684 7.33351 14.6684C3.28351 14.6684 -0.000488281 11.3864 -0.000488281 7.33339C-0.000488281 3.28239 3.28351 -0.000610352 7.33351 -0.000610352C11.3865 -0.000610352 14.6685 3.28239 14.6685 7.33339C14.6685 9.03739 14.0905 10.6034 13.1175 11.8474H13.6915C13.9175 11.8474 14.1325 11.9364 14.2905 12.0944L17.8075 15.6094C18.1345 15.9414 18.1345 16.4774 17.8035 16.8094Z" fill="#B8B8B8"/>
</svg>
